<svg xmlns="http://www.w3.org/2000/svg" xmlns:xlink="http://www.w3.org/1999/xlink" width="0" height="0" fill="#000">
  <symbol viewBox="0 0 48 48" id="prev">
    <path d="M12 12h4v24h-4zm7 12l17 12V12z" />
  </symbol>

  <symbol viewBox="0 0 48 48" id="play">
    <path d="M16 10v28l22-14z" />
  </symbol>

  <symbol viewBox="0 0 48 48" id="pause">
    <path d="M12 38h8V10h-8v28zm16-28v28h8V10h-8z" />
  </symbol>

  <symbol viewBox="0 0 48 48" id="next">
    <path d="M12 36l17-12-17-12v24zm20-24v24h4V12h-4z" />
  </symbol>

  <symbol viewBox="0 0 48 48" id="repeat">
    <path d="M14 14h20v6l8-8-8-8v6H10v12h4v-8zm20 20H14v-6l-8 8 8 8v-6h24V26h-4v8z" />
  </symbol>

  <symbol viewBox="0 0 48 48" id="volume">
    <path d="M6 18v12h8l10 10V8L14 18H6zm27 6c0-3.53-2.04-6.58-5-8.05v16.11c2.96-1.48 5-4.53 5-8.06zM28 6.46v4.13c5.78 1.72 10 7.07 10 13.41s-4.22 11.69-10 13.41v4.13c8.01-1.82 14-8.97 14-17.54S36.01 8.28 28 6.46z" />
  </symbol>

  <symbol viewBox="0 0 48 48" id="mute">
    <path d="M33 24c0-3.53-2.04-6.58-5-8.05v4.42l4.91 4.91c.06-.42.09-.85.09-1.28zm5 0c0 1.88-.41 3.65-1.08 5.28l3.03 3.03C41.25 29.82 42 27 42 24c0-8.56-5.99-15.72-14-17.54v4.13c5.78 1.72 10 7.07 10 13.41zM8.55 6L6 8.55 15.45 18H6v12h8l10 10V26.55l8.51 8.51c-1.34 1.03-2.85 1.86-4.51 2.36v4.13c2.75-.63 5.26-1.89 7.37-3.62L39.45 42 42 39.45l-18-18L8.55 6zM24 8l-4.18 4.18L24 16.36V8z" />
  </symbol>
</svg>